<svg width="17" height="21" viewBox="0 0 17 21" fill="none" xmlns="http://www.w3.org/2000/svg">
<path fill-rule="evenodd" clip-rule="evenodd" d="M2.98186 0.500229C2.7372 0.494751 2.50074 0.588019 2.32578 0.759034C2.15096 0.930049 2.05237 1.16435 2.05237 1.40904C2.05237 1.65372 2.15096 1.88801 2.32578 2.05904C2.50075 2.23005 2.73717 2.32332 2.98186 2.31784H13.8825C14.127 2.32332 14.3634 2.23005 14.5384 2.05904C14.7134 1.88802 14.812 1.65372 14.812 1.40904C14.812 1.16435 14.7134 0.930065 14.5384 0.759034C14.3634 0.588003 14.127 0.494748 13.8825 0.500229H2.98186ZM2.98186 4.13737C1.48698 4.13737 0.25 5.37268 0.25 6.8674V17.77C0.25 19.2647 1.48698 20.5 2.98186 20.5H13.8825C15.3772 20.5 16.6143 19.2647 16.6143 17.77V6.8674C16.6143 5.37268 15.3772 4.13737 13.8825 4.13737H2.98186ZM2.98186 5.95495H13.8825C14.4016 5.95495 14.7966 6.34811 14.7966 6.8674V17.77C14.7966 18.2891 14.4016 18.6823 13.8825 18.6823H2.98186C2.46257 18.6823 2.06941 18.2891 2.06941 17.77V6.8674C2.06941 6.34811 2.46257 5.95495 2.98186 5.95495ZM8.43646 7.77268C6.43948 7.77268 4.79932 9.41284 4.79932 11.4098C4.79932 12.184 5.05052 12.9 5.46864 13.492C4.54127 13.9291 3.88706 14.8663 3.88706 15.9504C3.88159 16.1951 3.975 16.4314 4.14602 16.6063C4.31703 16.7812 4.55118 16.8797 4.79587 16.8797C5.04055 16.8797 5.27468 16.7812 5.44571 16.6063C5.61673 16.4314 5.71015 16.1951 5.70467 15.9504C5.70467 15.4313 6.09784 15.0451 6.61712 15.0451H10.2543C10.7735 15.0451 11.1595 15.4313 11.1595 15.9504C11.1541 16.1951 11.2475 16.4314 11.4185 16.6063C11.5895 16.7812 11.8238 16.8797 12.0683 16.8797C12.313 16.8797 12.5473 16.7812 12.7183 16.6063C12.8894 16.4314 12.9826 16.1951 12.9773 15.9504C12.9773 14.8653 12.3263 13.9267 11.3992 13.4902C11.8155 12.8985 12.0649 12.1835 12.0649 11.4098C12.0649 9.41284 10.4337 7.77268 8.43656 7.77268H8.43646ZM8.43646 9.59041C9.45115 9.59041 10.2542 10.3951 10.2542 11.4098C10.2542 12.4245 9.45115 13.2276 8.43646 13.2276C7.42192 13.2276 6.61705 12.4245 6.61705 11.4098C6.61705 10.3951 7.42192 9.59041 8.43646 9.59041Z" fill="#BCBCBC"/>
</svg>
