<svg width="18" height="20" viewBox="0 0 18 20" fill="none" xmlns="http://www.w3.org/2000/svg">
<path d="M1.79312 5.945L9.25 10.2585L16.7069 5.945M9.25 18.86V10.25M16.9375 13.6667V6.83333C16.9372 6.53375 16.8581 6.23952 16.7082 5.98016C16.5583 5.72079 16.3428 5.50541 16.0833 5.35562L10.1042 1.93896C9.84447 1.78902 9.54988 1.71008 9.25 1.71008C8.95012 1.71008 8.65553 1.78902 8.39583 1.93896L2.41667 5.35562C2.15722 5.50541 1.94173 5.72079 1.79181 5.98016C1.64189 6.23952 1.56281 6.53375 1.5625 6.83333V13.6667C1.56281 13.9662 1.64189 14.2605 1.79181 14.5198C1.94173 14.7792 2.15722 14.9946 2.41667 15.1444L8.39583 18.561C8.65553 18.711 8.95012 18.7899 9.25 18.7899C9.54988 18.7899 9.84447 18.711 10.1042 18.561L16.0833 15.1444C16.3428 14.9946 16.5583 14.7792 16.7082 14.5198C16.8581 14.2605 16.9372 13.9662 16.9375 13.6667Z" stroke="#282828" stroke-width="2" stroke-linecap="round" stroke-linejoin="round"/>
</svg>
