<svg width="22" height="19" viewBox="0 0 22 19" fill="none" xmlns="http://www.w3.org/2000/svg">
<path d="M21 8.55974L17.8437 8.14105L17.1747 2.22429C17.1587 1.40889 16.4431 0.75 15.5658 0.75C15.5309 0.75 15.4975 0.756062 15.463 0.758152V0.75H1L1.00021 15.2463H2.97865C3.18358 16.6597 4.40597 17.75 5.88294 17.75C7.36007 17.75 8.58249 16.6595 8.78722 15.2463H13.229C13.4339 16.6597 14.6563 17.75 16.1332 17.75C17.6104 17.75 18.8328 16.6595 19.0375 15.2463H21L21 8.55974ZM15.5656 1.64874C15.9546 1.64874 16.2709 1.91943 16.2709 2.2516L16.9227 8.01852L15.4628 7.82496V1.66044C15.4972 1.65626 15.53 1.64832 15.5656 1.64832L15.5656 1.64874ZM5.88322 16.8508C4.76169 16.8508 3.8493 15.9436 3.8493 14.828C3.8493 13.7131 4.76169 12.8052 5.88322 12.8052C7.00475 12.8052 7.91714 13.7128 7.91714 14.828C7.91693 15.9438 7.00454 16.8508 5.88322 16.8508ZM16.1333 16.8508C15.0117 16.8508 14.0993 15.9436 14.0993 14.828C14.0993 13.7131 15.0117 12.8052 16.1333 12.8052C17.2548 12.8052 18.1672 13.7128 18.1672 14.828C18.1672 15.9438 17.2548 16.8508 16.1333 16.8508ZM20.0962 14.3473H19.028C18.7958 12.965 17.5883 11.9065 16.1336 11.9065C14.6788 11.9065 13.4709 12.9645 13.2388 14.3473H8.77755C8.54551 12.965 7.33781 11.9065 5.88317 11.9065C4.42853 11.9065 3.22085 12.9645 2.98879 14.3473H1.90427V1.64847H14.5594V8.61191L20.0961 9.34604L20.0962 14.3473Z" fill="#BCBCBC" stroke="#BCBCBC" stroke-width="0.8"/>
</svg>
