<svg width="19" height="22" viewBox="0 0 19 22" fill="none" xmlns="http://www.w3.org/2000/svg">
<path d="M13.8744 0.75C11.4391 0.75 9.45135 2.73528 9.45135 5.16929C9.45135 6.34118 9.91765 7.46558 10.7471 8.29427C11.5765 9.12296 12.7018 9.58842 13.8744 9.58842C15.0471 9.58842 16.1724 9.12296 17.0019 8.29427C17.8312 7.46558 18.2973 6.34118 18.2973 5.16929C18.2973 3.99724 17.831 2.87267 17.0019 2.04415C16.1724 1.21546 15.0473 0.75 13.8744 0.75ZM8.61775 1.7118C5.14349 1.98573 2.41695 4.8811 2.41695 8.41511V13.8268L1.05684 16.6866H1.057C0.970341 16.8689 0.983144 17.0828 1.09097 17.2535C1.19881 17.424 1.38657 17.5274 1.58828 17.5274H5.72922C5.8359 19.3223 7.33668 20.75 9.16062 20.75C10.9846 20.75 12.4843 19.3223 12.5917 17.5274H16.7329C16.9348 17.5274 17.1224 17.4238 17.2302 17.2533C17.3379 17.0828 17.3507 16.8687 17.264 16.6866L15.9041 13.8268V10.9371C15.9041 10.7812 15.8422 10.6315 15.7319 10.5212C15.6215 10.4107 15.4719 10.3488 15.3159 10.3488C15.1599 10.3488 15.0103 10.4107 14.9 10.5212C14.7895 10.6315 14.7276 10.7812 14.7276 10.9371V13.9597C14.728 14.047 14.7477 14.1333 14.7854 14.2122L15.8028 16.3511H12.5991V16.351H11.4226V16.3511H6.90037V16.351H5.72391V16.3511H2.52049L3.53758 14.2122C3.57533 14.1333 3.59503 14.047 3.59536 13.9597V8.41516C3.59536 5.48354 5.83437 3.11184 8.71254 2.88495C9.03637 2.85934 9.2783 2.57622 9.25283 2.25239C9.24053 2.0968 9.16699 1.95253 9.04833 1.8511C8.92967 1.74983 8.77555 1.69977 8.61997 1.71208L8.61775 1.7118ZM13.8744 1.92516C14.7359 1.92516 15.5615 2.26688 16.1704 2.87528C16.7793 3.48356 17.121 4.30796 17.121 5.16812C17.121 6.02816 16.7793 6.8524 16.1704 7.46096C15.5615 8.06924 14.7359 8.41091 13.8744 8.41091C13.0131 8.41091 12.1877 8.0692 11.5788 7.46096C10.9699 6.85256 10.6282 6.02812 10.6282 5.16812C10.6282 3.37045 12.0744 1.92512 13.8746 1.92512L13.8744 1.92516ZM6.90852 17.5259H11.4127C11.3104 18.6838 10.3547 19.5722 9.16068 19.5722C7.96683 19.5722 7.01078 18.6838 6.90852 17.5259Z" fill="#BCBCBC" stroke="#BCBCBC" stroke-width="0.8"/>
</svg>
