<svg width="20" height="21" viewBox="0 0 20 21" fill="none" xmlns="http://www.w3.org/2000/svg">
<path d="M6.2959 9.36859C5.79109 9.36859 5.38192 9.77775 5.38192 10.2824C5.38192 10.7872 5.79108 11.1964 6.2959 11.1964C6.80072 11.1964 7.20989 10.7872 7.20989 10.2824C7.20989 9.77777 6.80073 9.36859 6.2959 9.36859ZM12.5826 11.9054C12.0777 11.9054 11.6686 12.3146 11.6686 12.8192C11.6686 13.324 12.0777 13.7332 12.5826 13.7332C13.0874 13.7332 13.4965 13.324 13.4965 12.8192C13.4969 12.3148 13.0876 11.9054 12.5826 11.9054ZM11.2718 0.768264C5.36633 0.497001 1.50745 3.2686 1.50745 7.66689C1.50745 8.01692 1.79108 8.30059 2.14114 8.30059H3.1121V9.67166L1.07514 13.4755C0.969857 13.6717 0.975554 13.9092 1.09007 14.1003C1.20439 14.2915 1.41084 14.4083 1.63361 14.4083H3.11189V16.7472C3.11189 18.0864 4.20147 19.176 5.54072 19.176H8.28639V20.1163C8.28639 20.4661 8.57003 20.75 8.92008 20.75C9.27011 20.75 9.55378 20.4662 9.55378 20.1163V18.7254L11.3644 15.8501C12.2997 16.4223 13.4766 16.747 14.8793 16.8218V19.2477C14.8793 19.5975 15.1631 19.8814 15.513 19.8814C15.8628 19.8814 16.1467 19.5975 16.1467 19.2477V16.843H17.1716C17.3852 16.843 17.5841 16.7354 17.7014 16.5568C17.7788 16.4388 19.6005 13.6154 19.6005 9.36857C19.6003 7.33655 19.6003 1.15197 11.2722 0.768797L11.2718 0.768264ZM8.57016 17.9085H5.54107C4.90074 17.9085 4.37938 17.3872 4.37938 16.7468V13.7743C4.37938 13.4244 4.09575 13.1406 3.74569 13.1406H2.69166L4.30411 10.1292C4.35341 10.037 4.37934 9.9345 4.37934 9.8302V8.30002H6.92835C8.50585 8.30002 8.67596 9.51335 8.67596 10.0349C8.67596 12.2275 9.25188 13.9088 10.3678 15.0532L8.57016 17.9085ZM16.8079 15.5757H15.5128C11.7648 15.5757 9.94324 13.7633 9.94324 10.0353C9.94324 8.23954 8.73187 7.0331 6.92849 7.0331H2.81059C3.18203 3.79971 6.41971 1.81349 11.2137 2.03425C17.5235 2.32476 18.3331 6.10634 18.3331 9.36834C18.3331 12.486 17.2349 14.7956 16.8081 15.5756L16.8079 15.5757Z" fill="#BCBCBC" stroke="#BCBCBC" stroke-width="0.5"/>
</svg>
