<svg width="22" height="22" viewBox="0 0 22 22" fill="none" xmlns="http://www.w3.org/2000/svg">
<path d="M20.7373 5.5662L11.2081 0.800323C11.0763 0.733226 10.9214 0.733226 10.7896 0.800323L1.2583 5.5662C1.09808 5.64631 1 5.8091 1 5.98472V15.5165C1 15.6947 1.10082 15.8575 1.2583 15.935L10.7901 20.7009C10.8572 20.7344 10.927 20.75 10.9992 20.75C11.0716 20.75 11.1439 20.7344 11.2084 20.7009L20.7402 15.935C20.9004 15.8549 20.9985 15.6921 20.9985 15.5165V5.98472C20.9985 5.80653 20.8978 5.64631 20.7376 5.5662H20.7373ZM10.9965 1.74324L19.8591 6.17565L15.7702 8.22153L7.24583 3.61866L10.9965 1.74324ZM10.9965 10.6085L2.13386 6.17609L6.2228 4.13022L14.7471 8.73308L10.9965 10.6085ZM1.93492 7.12392L10.5289 11.4222V19.5255L1.93492 15.2271V7.12392ZM11.4667 19.5228V11.4222L20.0607 7.12651V15.2271L11.4667 19.5228Z" fill="#BCBCBC" stroke="#BCBCBC"/>
</svg>
