<svg width="20" height="19" viewBox="0 0 20 19" fill="none" xmlns="http://www.w3.org/2000/svg">
<path fill-rule="evenodd" clip-rule="evenodd" d="M10.0003 0.750178C5.0371 0.750178 1 4.78728 1 9.75008C1 10.9517 1.2382 12.0981 1.66739 13.147C1.67872 13.1853 1.69365 13.2226 1.71187 13.2582C3.08195 16.4829 6.28088 18.75 10.0002 18.75C13.7354 18.75 16.9445 16.4633 18.3048 13.2167V13.2166C18.3094 13.2055 18.3138 13.1945 18.318 13.1833C18.7565 12.1246 18.9997 10.9654 18.9997 9.74991C18.9997 4.7871 14.9633 0.75 10.0002 0.75L10.0003 0.750178ZM10.0003 2.03647C10.3447 2.03647 10.6902 2.18082 11.0657 2.52492C11.4413 2.86902 11.8195 3.4104 12.1424 4.11008C12.3811 4.62723 12.5891 5.22963 12.7569 5.89427H7.24054C7.40842 5.2296 7.61647 4.62723 7.8551 4.11008C8.17811 3.4104 8.55691 2.86901 8.93244 2.52492C9.30798 2.18083 9.65593 2.03647 10.0003 2.03647H10.0003ZM12.7344 2.53495C14.408 3.16748 15.8007 4.36377 16.6841 5.89427H14.0787C13.8827 5.04148 13.6262 4.25628 13.3103 3.57141C13.1365 3.19488 12.9436 2.85021 12.7346 2.53495H12.7344ZM7.26247 2.53553C7.05354 2.85064 6.86111 3.19502 6.68735 3.5714C6.37124 4.25616 6.11481 5.0415 5.91895 5.89425H3.31481C4.19802 4.3646 5.58977 3.16831 7.26228 2.53564L7.26247 2.53553ZM2.72284 7.17801H5.67665C5.56027 7.99307 5.499 8.85588 5.499 9.75C5.499 10.6441 5.56042 11.5069 5.67665 12.322H2.72284C2.43929 11.5177 2.28405 10.6526 2.28405 9.75C2.28405 8.84743 2.43931 7.98216 2.72284 7.17801ZM6.98328 7.17801H13.0147C13.1405 7.98359 13.2131 8.84754 13.2131 9.75C13.2131 10.6526 13.1405 11.5165 13.0147 12.322L6.98328 12.3221C6.85744 11.5165 6.78483 10.6526 6.78483 9.75014C6.78483 8.84758 6.85744 7.98359 6.98328 7.17815V7.17801ZM14.321 7.17801H17.2754C17.5588 7.98231 17.7141 8.8474 17.7141 9.75C17.7141 10.6526 17.5587 11.5178 17.2754 12.322H14.321C14.4373 11.5069 14.4993 10.6441 14.4993 9.75C14.4993 8.85588 14.4373 7.99307 14.321 7.17801ZM3.3161 13.6083H5.91964C6.11551 14.4603 6.37166 15.2445 6.68746 15.9286C6.86109 16.3049 7.05366 16.6494 7.26258 16.9645C5.59072 16.3321 4.19941 15.1368 3.31621 13.6083H3.3161ZM7.24116 13.6083L12.7564 13.6085C12.5886 14.2721 12.3809 14.8737 12.1424 15.3901C11.8194 16.0898 11.4412 16.633 11.0658 16.9771C10.6903 17.3212 10.3447 17.4637 10.0003 17.4637C9.65596 17.4637 9.30783 17.3212 8.93248 16.9771C8.55695 16.633 8.17814 16.0898 7.85514 15.3901C7.61679 14.8735 7.409 14.2721 7.24112 13.6085L7.24116 13.6083ZM14.0785 13.6083H16.6821C15.7989 15.1376 14.407 16.333 12.7346 16.9651C12.9437 16.6498 13.1365 16.3052 13.3103 15.9286C13.6261 15.2445 13.8828 14.4603 14.0787 13.6083H14.0785Z" fill="#BCBCBC" stroke="#BCBCBC" stroke-width="0.5"/>
</svg>
